<mxfile host="app.diagrams.net" modified="2023-04-18T08:08:31.280Z" agent="Mozilla/5.0 (X11; Linux x86_64; rv:91.0) Gecko/20100101 Firefox/91.0" version="21.1.6" etag="BOHSI25OFpoVE9E-cbJ_" type="github">
  <diagram name="第 1 页" id="MjN6CYrhBv5qs3SlSTt-">
    <mxGraphModel>
      <root>
        <mxCell id="0" />
        <mxCell id="1" parent="0" />
      </root>
    </mxGraphModel>
  </diagram>
</mxfile>
